<?xml version="1.0" encoding="UTF-8"?>
<svg xmlns="http://www.w3.org/2000/svg" xmlns:xlink="http://www.w3.org/1999/xlink" width="500" height="240" viewBox="0 0 500 240">
<path fill="none" stroke-width="2" stroke-linecap="butt" stroke-linejoin="miter" stroke="rgb(25.1%, 38.8%, 84.7%)" stroke-opacity="1" stroke-miterlimit="10" d="M 116.667969 220 L 383.332031 220 L 383.332031 20 L 183.332031 20 Z M 116.667969 220 "/>
<path fill-rule="nonzero" fill="rgb(100%, 100%, 100%)" fill-opacity="1" stroke-width="2" stroke-linecap="butt" stroke-linejoin="miter" stroke="rgb(25.1%, 38.8%, 84.7%)" stroke-opacity="1" stroke-miterlimit="10" d="M 119.667969 220 C 119.667969 221.65625 118.324219 223 116.667969 223 C 115.011719 223 113.667969 221.65625 113.667969 220 C 113.667969 218.34375 115.011719 217 116.667969 217 C 118.324219 217 119.667969 218.34375 119.667969 220 Z M 386.332031 220 C 386.332031 221.65625 384.988281 223 383.332031 223 C 381.675781 223 380.332031 221.65625 380.332031 220 C 380.332031 218.34375 381.675781 217 383.332031 217 C 384.988281 217 386.332031 218.34375 386.332031 220 Z M 386.332031 20 C 386.332031 21.65625 384.988281 23 383.332031 23 C 381.675781 23 380.332031 21.65625 380.332031 20 C 380.332031 18.34375 381.675781 17 383.332031 17 C 384.988281 17 386.332031 18.34375 386.332031 20 Z M 186.332031 20 C 186.332031 21.65625 184.988281 23 183.332031 23 C 181.675781 23 180.332031 21.65625 180.332031 20 C 180.332031 18.34375 181.675781 17 183.332031 17 C 184.988281 17 186.332031 18.34375 186.332031 20 Z M 186.332031 20 "/>
<path fill-rule="nonzero" fill="rgb(100%, 100%, 100%)" fill-opacity="1" stroke-width="2" stroke-linecap="butt" stroke-linejoin="miter" stroke="rgb(58.4%, 34.5%, 69.8%)" stroke-opacity="1" stroke-miterlimit="10" d="M 268.871094 124.761719 C 268.871094 126.417969 267.53125 127.761719 265.871094 127.761719 C 264.214844 127.761719 262.871094 126.417969 262.871094 124.761719 C 262.871094 123.105469 264.214844 121.761719 265.871094 121.761719 C 267.53125 121.761719 268.871094 123.105469 268.871094 124.761719 Z M 268.871094 124.761719 "/>
</svg>
