<?xml version="1.0" encoding="UTF-8"?>
<svg xmlns="http://www.w3.org/2000/svg" xmlns:xlink="http://www.w3.org/1999/xlink" width="500" height="320" viewBox="0 0 500 320">
<path fill="none" stroke-width="2" stroke-linecap="butt" stroke-linejoin="miter" stroke="rgb(25.1%, 38.8%, 84.7%)" stroke-opacity="1" stroke-miterlimit="10" d="M 321.566406 176.152344 C 321.566406 219.871094 286.125 255.316406 242.402344 255.316406 C 198.679688 255.316406 163.238281 219.871094 163.238281 176.152344 C 163.238281 132.429688 198.679688 96.988281 242.402344 96.988281 C 286.125 96.988281 321.566406 132.429688 321.566406 176.152344 Z M 321.566406 176.152344 "/>
<path fill="none" stroke-width="2" stroke-linecap="butt" stroke-linejoin="miter" stroke="rgb(58.4%, 34.5%, 69.8%)" stroke-opacity="1" stroke-miterlimit="10" d="M 105.195313 227.546875 L 394.804688 290 L 252.765625 30 Z M 105.195313 227.546875 "/>
<path fill-rule="nonzero" fill="rgb(100%, 100%, 100%)" fill-opacity="1" stroke-width="2" stroke-linecap="butt" stroke-linejoin="miter" stroke="rgb(25.1%, 38.8%, 84.7%)" stroke-opacity="1" stroke-miterlimit="10" d="M 314.875 138.199219 C 314.875 139.855469 313.53125 141.199219 311.875 141.199219 C 310.21875 141.199219 308.875 139.855469 308.875 138.199219 C 308.875 136.542969 310.21875 135.199219 311.875 135.199219 C 313.53125 135.199219 314.875 136.542969 314.875 138.199219 Z M 181.980469 128.773438 C 181.980469 130.429688 180.636719 131.773438 178.980469 131.773438 C 177.324219 131.773438 175.980469 130.429688 175.980469 128.773438 C 175.980469 127.117188 177.324219 125.773438 178.980469 125.773438 C 180.636719 125.773438 181.980469 127.117188 181.980469 128.773438 Z M 228.714844 253.539063 C 228.714844 255.195313 227.371094 256.539063 225.714844 256.539063 C 224.058594 256.539063 222.714844 255.195313 222.714844 253.539063 C 222.714844 251.878906 224.058594 250.539063 225.714844 250.539063 C 227.371094 250.539063 228.714844 251.878906 228.714844 253.539063 Z M 228.714844 253.539063 "/>
</svg>
