<?xml version="1.0" encoding="UTF-8"?>
<svg xmlns="http://www.w3.org/2000/svg" xmlns:xlink="http://www.w3.org/1999/xlink" width="500" height="240" viewBox="0 0 500 240">
<path fill="none" stroke-width="2" stroke-linecap="butt" stroke-linejoin="miter" stroke="rgb(80%, 80%, 80%)" stroke-opacity="1" stroke-dasharray="4 4" stroke-miterlimit="10" d="M 250 140 C 250 184.183594 214.183594 220 170 220 C 125.816406 220 90 184.183594 90 140 C 90 95.816406 125.816406 60 170 60 C 214.183594 60 250 95.816406 250 140 Z M 250 140 "/>
<path fill="none" stroke-width="2" stroke-linecap="butt" stroke-linejoin="miter" stroke="rgb(25.1%, 38.8%, 84.7%)" stroke-opacity="1" stroke-miterlimit="10" d="M 290 20 L 410 100 L 250 220 Z M 290 20 "/>
<path fill="none" stroke-width="2" stroke-linecap="butt" stroke-linejoin="miter" stroke="rgb(58.4%, 34.5%, 69.8%)" stroke-opacity="1" stroke-miterlimit="10" d="M 196.667969 113.332031 C 201.222656 120.167969 200.933594 129.148438 195.945313 135.675781 C 204.722656 138.519531 211.589844 145.425781 214.378906 154.222656 C 217.167969 163.015625 215.535156 172.617188 210 180 C 218.839844 178.230469 226.617188 173.023438 231.617188 165.523438 C 236.617188 158.019531 238.433594 148.839844 236.667969 140 C 234.898438 131.160156 229.691406 123.382813 222.191406 118.382813 C 214.6875 113.382813 205.507813 111.566406 196.667969 113.332031 Z M 196.667969 113.332031 "/>
<path fill-rule="nonzero" fill="rgb(100%, 100%, 100%)" fill-opacity="1" stroke-width="2" stroke-linecap="butt" stroke-linejoin="miter" stroke="rgb(25.1%, 38.8%, 84.7%)" stroke-opacity="1" stroke-miterlimit="10" d="M 293 20 C 293 21.65625 291.65625 23 290 23 C 288.34375 23 287 21.65625 287 20 C 287 18.34375 288.34375 17 290 17 C 291.65625 17 293 18.34375 293 20 Z M 413 100 C 413 101.65625 411.65625 103 410 103 C 408.34375 103 407 101.65625 407 100 C 407 98.34375 408.34375 97 410 97 C 411.65625 97 413 98.34375 413 100 Z M 253 220 C 253 221.65625 251.65625 223 250 223 C 248.34375 223 247 221.65625 247 220 C 247 218.34375 248.34375 217 250 217 C 251.65625 217 253 218.34375 253 220 Z M 253 220 "/>
<path fill-rule="nonzero" fill="rgb(100%, 100%, 100%)" fill-opacity="1" stroke-width="2" stroke-linecap="butt" stroke-linejoin="miter" stroke="rgb(25.1%, 38.8%, 84.7%)" stroke-opacity="1" stroke-miterlimit="10" d="M 173 140 C 173 141.65625 171.65625 143 170 143 C 168.34375 143 167 141.65625 167 140 C 167 138.34375 168.34375 137 170 137 C 171.65625 137 173 138.34375 173 140 Z M 173 140 "/>
</svg>
