<?xml version="1.0" encoding="UTF-8"?>
<svg xmlns="http://www.w3.org/2000/svg" xmlns:xlink="http://www.w3.org/1999/xlink" width="500" height="280" viewBox="0 0 500 280">
<defs>
<g>
<g id="glyph-0-0">
<path d="M 1.078125 0 L 1.078125 -10.023438 L 4.859375 -10.023438 C 5.523438 -10.019531 6.03125 -9.988281 6.382813 -9.925781 C 6.875 -9.84375 7.289063 -9.6875 7.621094 -9.457031 C 7.953125 -9.226563 8.222656 -8.902344 8.425781 -8.488281 C 8.628906 -8.070313 8.730469 -7.617188 8.730469 -7.125 C 8.730469 -6.269531 8.457031 -5.546875 7.914063 -4.957031 C 7.371094 -4.367188 6.390625 -4.070313 4.976563 -4.074219 L 2.40625 -4.074219 L 2.40625 0 Z M 2.40625 -5.257813 L 4.996094 -5.257813 C 5.851563 -5.253906 6.460938 -5.414063 6.820313 -5.734375 C 7.179688 -6.050781 7.359375 -6.5 7.363281 -7.082031 C 7.359375 -7.5 7.253906 -7.859375 7.042969 -8.15625 C 6.832031 -8.453125 6.550781 -8.648438 6.207031 -8.75 C 5.980469 -8.804688 5.570313 -8.835938 4.96875 -8.839844 L 2.40625 -8.839844 Z M 2.40625 -5.257813 "/>
</g>
</g>
</defs>
<path fill="none" stroke-width="0.7" stroke-linecap="butt" stroke-linejoin="miter" stroke="rgb(86.27451%, 86.27451%, 86.27451%)" stroke-opacity="1" stroke-miterlimit="10" d="M 103.332031 250 L 103.332031 30 "/>
<path fill="none" stroke-width="0.7" stroke-linecap="butt" stroke-linejoin="miter" stroke="rgb(86.27451%, 86.27451%, 86.27451%)" stroke-opacity="1" stroke-miterlimit="10" d="M 140 250 L 140 30 "/>
<path fill="none" stroke-width="0.7" stroke-linecap="butt" stroke-linejoin="miter" stroke="rgb(86.27451%, 86.27451%, 86.27451%)" stroke-opacity="1" stroke-miterlimit="10" d="M 176.667969 250 L 176.667969 30 "/>
<path fill="none" stroke-width="0.7" stroke-linecap="butt" stroke-linejoin="miter" stroke="rgb(86.27451%, 86.27451%, 86.27451%)" stroke-opacity="1" stroke-miterlimit="10" d="M 213.332031 250 L 213.332031 30 "/>
<path fill="none" stroke-width="0.7" stroke-linecap="butt" stroke-linejoin="miter" stroke="rgb(86.27451%, 86.27451%, 86.27451%)" stroke-opacity="1" stroke-miterlimit="10" d="M 250 250 L 250 30 "/>
<path fill="none" stroke-width="0.7" stroke-linecap="butt" stroke-linejoin="miter" stroke="rgb(86.27451%, 86.27451%, 86.27451%)" stroke-opacity="1" stroke-miterlimit="10" d="M 286.667969 250 L 286.667969 30 "/>
<path fill="none" stroke-width="0.7" stroke-linecap="butt" stroke-linejoin="miter" stroke="rgb(86.27451%, 86.27451%, 86.27451%)" stroke-opacity="1" stroke-miterlimit="10" d="M 323.332031 250 L 323.332031 30 "/>
<path fill="none" stroke-width="0.7" stroke-linecap="butt" stroke-linejoin="miter" stroke="rgb(86.27451%, 86.27451%, 86.27451%)" stroke-opacity="1" stroke-miterlimit="10" d="M 360 250 L 360 30 "/>
<path fill="none" stroke-width="0.7" stroke-linecap="butt" stroke-linejoin="miter" stroke="rgb(86.27451%, 86.27451%, 86.27451%)" stroke-opacity="1" stroke-miterlimit="10" d="M 396.667969 250 L 396.667969 30 "/>
<path fill="none" stroke-width="0.7" stroke-linecap="butt" stroke-linejoin="miter" stroke="rgb(86.27451%, 86.27451%, 86.27451%)" stroke-opacity="1" stroke-miterlimit="10" d="M 103.332031 250 L 396.667969 250 "/>
<path fill="none" stroke-width="0.7" stroke-linecap="butt" stroke-linejoin="miter" stroke="rgb(86.27451%, 86.27451%, 86.27451%)" stroke-opacity="1" stroke-miterlimit="10" d="M 103.332031 213.332031 L 396.667969 213.332031 "/>
<path fill="none" stroke-width="0.7" stroke-linecap="butt" stroke-linejoin="miter" stroke="rgb(86.27451%, 86.27451%, 86.27451%)" stroke-opacity="1" stroke-miterlimit="10" d="M 103.332031 176.667969 L 396.667969 176.667969 "/>
<path fill="none" stroke-width="0.7" stroke-linecap="butt" stroke-linejoin="miter" stroke="rgb(86.27451%, 86.27451%, 86.27451%)" stroke-opacity="1" stroke-miterlimit="10" d="M 103.332031 140 L 396.667969 140 "/>
<path fill="none" stroke-width="0.7" stroke-linecap="butt" stroke-linejoin="miter" stroke="rgb(86.27451%, 86.27451%, 86.27451%)" stroke-opacity="1" stroke-miterlimit="10" d="M 103.332031 103.332031 L 396.667969 103.332031 "/>
<path fill="none" stroke-width="0.7" stroke-linecap="butt" stroke-linejoin="miter" stroke="rgb(86.27451%, 86.27451%, 86.27451%)" stroke-opacity="1" stroke-miterlimit="10" d="M 103.332031 66.667969 L 396.667969 66.667969 "/>
<path fill="none" stroke-width="0.7" stroke-linecap="butt" stroke-linejoin="miter" stroke="rgb(86.27451%, 86.27451%, 86.27451%)" stroke-opacity="1" stroke-miterlimit="10" d="M 103.332031 30 L 396.667969 30 "/>
<path fill="none" stroke-width="1.3" stroke-linecap="butt" stroke-linejoin="miter" stroke="rgb(0%, 0%, 0%)" stroke-opacity="1" stroke-miterlimit="10" d="M 103.332031 213.332031 L 396.667969 213.332031 "/>
<path fill="none" stroke-width="1.3" stroke-linecap="butt" stroke-linejoin="miter" stroke="rgb(0%, 0%, 0%)" stroke-opacity="1" stroke-miterlimit="10" d="M 140 250 L 140 30 "/>
<path fill="none" stroke-width="1.5" stroke-linecap="butt" stroke-linejoin="miter" stroke="rgb(25.1%, 38.8%, 84.7%)" stroke-opacity="1" stroke-dasharray="1 3" stroke-miterlimit="10" d="M 286.667969 103.332031 L 286.667969 213.332031 "/>
<path fill="none" stroke-width="1.5" stroke-linecap="butt" stroke-linejoin="miter" stroke="rgb(25.1%, 38.8%, 84.7%)" stroke-opacity="1" stroke-dasharray="1 3" stroke-miterlimit="10" d="M 286.667969 103.332031 L 140 103.332031 "/>
<path fill-rule="nonzero" fill="rgb(100%, 100%, 100%)" fill-opacity="1" stroke-width="1.5" stroke-linecap="butt" stroke-linejoin="miter" stroke="rgb(79.6%, 23.5%, 20%)" stroke-opacity="1" stroke-miterlimit="10" d="M 289.667969 103.332031 C 289.667969 104.988281 288.324219 106.332031 286.667969 106.332031 C 285.011719 106.332031 283.667969 104.988281 283.667969 103.332031 C 283.667969 101.675781 285.011719 100.332031 286.667969 100.332031 C 288.324219 100.332031 289.667969 101.675781 289.667969 103.332031 Z M 289.667969 103.332031 "/>
<g fill="rgb(0%, 0%, 0%)" fill-opacity="1">
<use xlink:href="#glyph-0-0" x="290.202201" y="99.797799"/>
</g>
</svg>
