<?xml version="1.0" encoding="UTF-8"?>
<svg xmlns="http://www.w3.org/2000/svg" xmlns:xlink="http://www.w3.org/1999/xlink" width="500" height="340" viewBox="0 0 500 340">
<path fill="none" stroke-width="2" stroke-linecap="butt" stroke-linejoin="miter" stroke="rgb(80%, 80%, 80%)" stroke-opacity="1" stroke-miterlimit="10" d="M 276.042969 170 C 276.042969 184.382813 264.382813 196.042969 250 196.042969 C 235.617188 196.042969 223.957031 184.382813 223.957031 170 C 223.957031 155.617188 235.617188 143.957031 250 143.957031 C 264.382813 143.957031 276.042969 155.617188 276.042969 170 Z M 276.042969 170 "/>
<path fill="none" stroke-width="2" stroke-linecap="butt" stroke-linejoin="miter" stroke="rgb(25.1%, 38.8%, 84.7%)" stroke-opacity="1" stroke-miterlimit="10" d="M 207.863281 196.042969 L 305.601563 196.042969 L 244.515625 122.738281 Z M 207.863281 196.042969 "/>
<path fill="none" stroke-width="2" stroke-linecap="butt" stroke-linejoin="miter" stroke="rgb(58.4%, 34.5%, 69.8%)" stroke-opacity="1" stroke-miterlimit="10" d="M 390 170 C 390 247.320313 327.320313 310 250 310 C 172.679688 310 110 247.320313 110 170 C 110 92.679688 172.679688 30 250 30 C 327.320313 30 390 92.679688 390 170 Z M 390 170 "/>
<path fill="none" stroke-width="2" stroke-linecap="butt" stroke-linejoin="miter" stroke="rgb(58.4%, 34.5%, 69.8%)" stroke-opacity="1" stroke-miterlimit="10" d="M 280.035156 170 C 280.035156 186.585938 266.585938 200.035156 250 200.035156 C 233.414063 200.035156 219.964844 186.585938 219.964844 170 C 219.964844 153.414063 233.414063 139.964844 250 139.964844 C 266.585938 139.964844 280.035156 153.414063 280.035156 170 Z M 280.035156 170 "/>
<path fill-rule="nonzero" fill="rgb(100%, 100%, 100%)" fill-opacity="1" stroke-width="2" stroke-linecap="butt" stroke-linejoin="miter" stroke="rgb(25.1%, 38.8%, 84.7%)" stroke-opacity="1" stroke-miterlimit="10" d="M 210.863281 196.042969 C 210.863281 197.699219 209.519531 199.042969 207.863281 199.042969 C 206.207031 199.042969 204.863281 197.699219 204.863281 196.042969 C 204.863281 194.386719 206.207031 193.042969 207.863281 193.042969 C 209.519531 193.042969 210.863281 194.386719 210.863281 196.042969 Z M 308.601563 196.042969 C 308.601563 197.699219 307.257813 199.042969 305.601563 199.042969 C 303.945313 199.042969 302.601563 197.699219 302.601563 196.042969 C 302.601563 194.386719 303.945313 193.042969 305.601563 193.042969 C 307.257813 193.042969 308.601563 194.386719 308.601563 196.042969 Z M 247.515625 122.738281 C 247.515625 124.394531 246.171875 125.738281 244.515625 125.738281 C 242.859375 125.738281 241.515625 124.394531 241.515625 122.738281 C 241.515625 121.082031 242.859375 119.738281 244.515625 119.738281 C 246.171875 119.738281 247.515625 121.082031 247.515625 122.738281 Z M 247.515625 122.738281 "/>
<path fill-rule="nonzero" fill="rgb(100%, 100%, 100%)" fill-opacity="1" stroke-width="2" stroke-linecap="butt" stroke-linejoin="miter" stroke="rgb(58.4%, 34.5%, 69.8%)" stroke-opacity="1" stroke-miterlimit="10" d="M 115.445313 196.042969 C 115.445313 197.699219 114.101563 199.042969 112.445313 199.042969 C 110.785156 199.042969 109.445313 197.699219 109.445313 196.042969 C 109.445313 194.386719 110.785156 193.042969 112.445313 193.042969 C 114.101563 193.042969 115.445313 194.386719 115.445313 196.042969 Z M 168.191406 281.386719 C 168.191406 283.042969 166.847656 284.386719 165.191406 284.386719 C 163.535156 284.386719 162.191406 283.042969 162.191406 281.386719 C 162.191406 279.730469 163.535156 278.386719 165.191406 278.386719 C 166.847656 278.386719 168.191406 279.730469 168.191406 281.386719 Z M 390.554688 196.042969 C 390.554688 197.699219 389.214844 199.042969 387.554688 199.042969 C 385.898438 199.042969 384.554688 197.699219 384.554688 196.042969 C 384.554688 194.386719 385.898438 193.042969 387.554688 193.042969 C 389.214844 193.042969 390.554688 194.386719 390.554688 196.042969 Z M 361.066406 259.003906 C 361.066406 260.660156 359.722656 262.003906 358.066406 262.003906 C 356.410156 262.003906 355.066406 260.660156 355.066406 259.003906 C 355.066406 257.34375 356.410156 256.003906 358.066406 256.003906 C 359.722656 256.003906 361.066406 257.34375 361.066406 259.003906 Z M 184.945313 47.65625 C 184.945313 49.3125 183.601563 50.65625 181.945313 50.65625 C 180.289063 50.65625 178.945313 49.3125 178.945313 47.65625 C 178.945313 45.996094 180.289063 44.65625 181.945313 44.65625 C 183.601563 44.65625 184.945313 45.996094 184.945313 47.65625 Z M 291.222656 35.320313 C 291.222656 36.976563 289.882813 38.320313 288.222656 38.320313 C 286.566406 38.320313 285.222656 36.976563 285.222656 35.320313 C 285.222656 33.664063 286.566406 32.320313 288.222656 32.320313 C 289.882813 32.320313 291.222656 33.664063 291.222656 35.320313 Z M 291.222656 35.320313 "/>
<path fill-rule="nonzero" fill="rgb(100%, 100%, 100%)" fill-opacity="1" stroke-width="2" stroke-linecap="butt" stroke-linejoin="miter" stroke="rgb(58.4%, 34.5%, 69.8%)" stroke-opacity="1" stroke-miterlimit="10" d="M 238.035156 196.042969 C 238.035156 197.699219 236.695313 199.042969 235.035156 199.042969 C 233.378906 199.042969 232.035156 197.699219 232.035156 196.042969 C 232.035156 194.386719 233.378906 193.042969 235.035156 193.042969 C 236.695313 193.042969 238.035156 194.386719 238.035156 196.042969 Z M 267.964844 196.042969 C 267.964844 197.699219 266.621094 199.042969 264.964844 199.042969 C 263.304688 199.042969 261.964844 197.699219 261.964844 196.042969 C 261.964844 194.386719 263.304688 193.042969 264.964844 193.042969 C 266.621094 193.042969 267.964844 194.386719 267.964844 196.042969 Z M 282.585938 164.824219 C 282.585938 166.480469 281.242188 167.824219 279.585938 167.824219 C 277.929688 167.824219 276.585938 166.480469 276.585938 164.824219 C 276.585938 163.167969 277.929688 161.824219 279.585938 161.824219 C 281.242188 161.824219 282.585938 163.167969 282.585938 164.824219 Z M 263.425781 141.832031 C 263.425781 143.488281 262.082031 144.832031 260.425781 144.832031 C 258.769531 144.832031 257.425781 143.488281 257.425781 141.832031 C 257.425781 140.175781 258.769531 138.832031 260.425781 138.832031 C 262.082031 138.832031 263.425781 140.175781 263.425781 141.832031 Z M 236.398438 144.96875 C 236.398438 146.628906 235.054688 147.96875 233.398438 147.96875 C 231.742188 147.96875 230.398438 146.628906 230.398438 144.96875 C 230.398438 143.3125 231.742188 141.96875 233.398438 141.96875 C 235.054688 141.96875 236.398438 143.3125 236.398438 144.96875 Z M 223.015625 171.738281 C 223.015625 173.394531 221.671875 174.738281 220.015625 174.738281 C 218.359375 174.738281 217.015625 173.394531 217.015625 171.738281 C 217.015625 170.082031 218.359375 168.738281 220.015625 168.738281 C 221.671875 168.738281 223.015625 170.082031 223.015625 171.738281 Z M 223.015625 171.738281 "/>
</svg>
